<?xml version="1.0" encoding="utf-8"?>
<!-- Generator: Adobe Illustrator 22.0.1, SVG Export Plug-In . SVG Version: 6.00 Build 0)  -->
<svg version="1.1" id="Ebene_1" xmlns="http://www.w3.org/2000/svg" xmlns:xlink="http://www.w3.org/1999/xlink" x="0px" y="0px"
	 viewBox="0 0 200 200" style="enable-background:new 0 0 200 200;" xml:space="preserve">
<style type="text/css">
	.st0{opacity:0.2;fill:#CAD6E6;stroke:#35495E;stroke-width:3.8201442;stroke-miterlimit:10;enable-background:new    ;}
	.st1{fill:#FFFFFF;}
	.st2{fill:#41B883;}
	.st3{opacity:0.2;}
	.st4{fill:#35495E;}
	.st5{opacity:0.5;fill:#FFFFFF;enable-background:new    ;}
	.st6{fill:#435466;}
</style>
<g id="Ebene_1_1_">
</g>
<g id="Ebene_2_1_">
	<path class="st0" d="M100,9c0,0,54.7554016,0,54.7554016,3.8201437c0,0-7.6402893,22.9208641-10.1870575,71.3093491
		s-3.8201447,91.6834488-3.8201447,91.6834488s0,5.0935364-3.8201447,6.3669128S112.7338104,186,100,186
		s-33.1079102-2.5467682-36.9280586-3.8201447s-3.8201447-6.3669128-3.8201447-6.3669128
		s-1.2733803-43.2949524-3.8201408-91.6834488C52.8848915,35.7410088,45.244606,12.8201437,45.244606,12.8201437
		C45.244606,9,100,9,100,9z"/>
	<polygon class="st1" points="54.1582718,16.6402874 59.2517967,40.8345337 59.2517967,16.6402874 	"/>
	<path class="st2" d="M138.2014313,121.0575562c0,0-7.7099152,11.460434-38.5496216,11.460434
		s-37.8532486-10.1870575-37.8532486-10.1870575l-2.5467644-52.2086334h81.4963989L138.2014313,121.0575562z"/>
	<g class="st3">
		<path class="st4" d="M137.564743,124.2410049c-0.6420288,1.6153946-1.7553101,3.0341415-2.9892426,4.2842636
			c-1.2538452,1.2366486-2.6525269,2.3440399-4.1429749,3.2942352c-2.9989243,1.8679657-6.2677383,3.3465271-9.6564331,4.3007202
			c-6.7584457,2.1089783-13.8179932,2.6694641-20.7760925,2.7635193
			c-6.9583359-0.0893707-14.0180588-0.6498413-20.7775345-2.7580109c-3.3888855-0.9549561-6.6582489-2.4328613-9.6574402-4.3018188
			c-1.4904251-0.9508667-2.8883591-2.0597229-4.1425095-3.2963257c-1.2334518-1.2510223-2.3465614-2.6703339-2.9872627-4.2865829
			c2.0755577,2.7611389,5.0291634,4.5486526,8.037838,5.9416275c1.5007782,0.721344,3.077095,1.2880859,4.6622849,1.792099
			l2.3965225,0.7093658l2.4436111,0.5572815c0.8067703,0.2048187,1.632782,0.3423157,2.4630432,0.4618073l2.4694901,0.4293976
			c1.6689148,0.1831207,3.3297424,0.4004364,5.0019531,0.5340424c1.6813965,0.0791626,3.3510284,0.2568512,5.0336304,0.3140869
			L100,135.0658875l5.0564728-0.0831757c1.682785-0.0558014,3.3519287-0.2385559,5.0340652-0.3109283
			c1.6722794-0.1339264,3.3331833-0.3515472,5.0021439-0.5349579l2.4701157-0.4273682
			c0.8302841-0.1197205,1.6563187-0.2574921,2.4631348-0.4625549l2.4436646-0.5580444l2.3971405-0.7085724
			c1.5854187-0.504303,3.1609116-1.0731049,4.6626205-1.7932281
			C132.5373383,128.7921295,135.4918365,127.0041809,137.564743,124.2410049z"/>
	</g>
	<polygon class="st5" points="64.3453217,70.1222992 68.1654663,126.1510773 68.1654663,70.1222992 	"/>
	<g id="g10" transform="matrix(1.3333333,0,0,-1.3333333,0,400)">
		<g id="g12" transform="translate(178.0626,235.0086)">
			<path id="path14" class="st1" d="M-99.1654892,4.6055379l-3.8971024-6.7500019l-3.8971024,6.7500019h-12.9778976
				l16.875-29.2281742l16.8750076,29.2281742H-99.1654892z"/>
		</g>
		<g id="g16" transform="translate(178.0626,235.0086)">
			<path id="path18" class="st6" d="M-99.1654892,4.6055379l-3.8971024-6.7500019l-3.8971024,6.7500019h-6.2278976l10.125-17.536871
				l10.1250076,17.536871H-99.1654892z"/>
		</g>
	</g>
</g>
</svg>
